# xmcd
#
# Track frame offsets:
#	150
#	9551
#	22495
#	31431
#	39276
#	47202
#	57811
#	69233
#	76635
#	89839
#	101635
#	115435
#	125797
#	139750
#	153277
#
# Disc length: 2185 seconds
#
# Revision: 1
# Processed by: cddbd v1.4PL0 Copyright (c) Steve Scherf et al.
# Submitted via: audiograbber 1.80
#
DISCID=cb08870f
DTITLE=Diverse - Riders In The Sky - Die schönsten Westernmelodien
DYEAR=1900
DGENRE=
TTITLE0=The Magnificent Seven
TTITLE1=The Good, Zhe Bad And The Ugly
TTITLE2=How The West Was Won
TTITLE3=Ballad Of The Alamo
TTITLE4=Rawhide
TTITLE5=Bonanza
TTITLE6=The Virginian
TTITLE7=High Chaparel
TTITLE8=Shane
TTITLE9=The Man From Laramie
TTITLE10=Johnny Guitar
TTITLE11=The Comancheros
TTITLE12=High Plains Drifter
TTITLE13=Vera Cruz
TTITLE14=The Return Of The Magnificent Seven
EXTD=
EXTT0=
EXTT1=
EXTT2=
EXTT3=
EXTT4=
EXTT5=
EXTT6=
EXTT7=
EXTT8=
EXTT9=
EXTT10=
EXTT11=
EXTT12=
EXTT13=
EXTT14=
PLAYORDER=
